<?xml version="1.0" standalone="no"?>
<!DOCTYPE svg PUBLIC "-//W3C//DTD SVG 1.0//EN" "http://www.w3.org/TR/2001/REC-SVG-20010904/DTD/svg10.dtd">
<svg xmlns="http://www.w3.org/2000/svg" xmlns:xlink="http://www.w3.org/1999/xlink" id="body_1" width="419" height="344">

<defs>
    <linearGradient transform="matrix(1 0 0 1 0 0)"  id="1" x1="352.43" y1="317.15" x2="352.43" y2="135.71">
        <stop stop-color="#808080" offset="0%"/>
        <stop stop-color="#808080" offset="100%"/>
    </linearGradient>
    <linearGradient transform="matrix(1 0 0 1 0 0)"  id="232" x1="569.83" y1="551.49" x2="569.83" y2="380.82">
        <stop stop-color="#808080" offset="0%"/>
        <stop stop-color="#808080" offset="100%"/>
    </linearGradient>
    <linearGradient transform="matrix(1 0 0 1 0 0)"  id="465" x1="171.5" y1="319.2" x2="171.5" y2="319.02">
        <stop stop-color="#808080" offset="0%"/>
        <stop stop-color="#808080" offset="100%"/>
    </linearGradient>
    <linearGradient transform="matrix(1 0 0 1 0 0)"  id="695" x1="228.01" y1="853.75" x2="228.01" y2="250.26">
        <stop stop-color="#808080" offset="0%"/>
        <stop stop-color="#808080" offset="100%"/>
    </linearGradient>
    <linearGradient transform="matrix(1 0 0 1 0 0)"  id="928" x1="944.05" y1="849.94" x2="944.05" y2="268.42">
        <stop stop-color="#808080" offset="0%"/>
        <stop stop-color="#808080" offset="100%"/>
    </linearGradient>
</defs>

<g transform="matrix(0.4095797 0 0 0.41050118 0 0)">
    <path d="M0 807.85C 0 791.2869 78.79788 777.86 176 777.86C 273.20212 777.86 352 791.2869 352 807.85C 352 824.413 273.20212 837.83997 176 837.83997C 78.79788 837.83997 0 824.413 0 807.85" stroke="none" fill="#00C7FA" fill-rule="nonzero" fill-opacity="0.09803922" />
    <path d="M671.47 800.75C 671.47 784.18695 750.2678 770.76 847.47 770.76C 944.6721 770.76 1023.47 784.18695 1023.47 800.75C 1023.47 817.31305 944.6721 830.74 847.47 830.74C 750.2678 830.74 671.47 817.31305 671.47 800.75" stroke="none" fill="#00C7FA" fill-rule="nonzero" fill-opacity="0.09803922" />
    <path d="M274.41 0.46C 228.41 2.92 181.93 16.359999 146.04001 45.25C 114.55001 70.61 91.84001 110.48 97.380005 150.54001C 103.920006 197.83002 146.11 232.23001 161.76001 277.34003C 171.83002 306.34003 170.26001 338.34003 163.67001 368.34003C 159.43001 387.67 152.91002 407.02002 140.38 422.34003C 117.810005 449.90002 77.08 463.2 65.990005 497.05002C 53.930004 533.86005 84.32001 569.96 112.87001 596.14C 135.66 617.03 159.53001 637.82 188.25 649.27C 209.25 657.65 232.04001 660.66003 254.63 661.86005C 317.00967 665.133 379.376 655.1681 437.63 632.62006C 465.54 621.79004 492.54 608.06006 521.75 601.53C 584 587.61005 648.05 607.68005 711.14 617.08C 765.2218 625.11414 820.1818 625.27576 874.31 617.56C 908.37 612.7 943.56 603.93 969.21 581.01C 995.21 557.74 1008.21 521.72003 1006.77 486.82C 1005.33 451.91998 990.61005 418.32 968.93 390.92C 940.93 355.53003 902.31 330.35 868.70996 300.19C 834.49695 269.46323 805.39276 233.48634 782.49 193.61C 769.29 170.61 758.06 146.2 740.95996 125.95C 714.29 94.39 675.61 75.619995 636.95996 61.119995C 547.7999 27.719994 455.31995 20.919994 362.35995 6.159996C 333.30997 1.5299959 303.83997 -1.0800037 274.40997 0.45999622L274.40997 0.45999622L274.41 0.46z" stroke="none" fill="#00C7FA" fill-rule="nonzero" fill-opacity="0.09803922" />
	<g>
        <path d="M258.54 367.11L449.5 367.11L449.5 473.81998L258.54 473.81998L258.54 367.11z" stroke="none" fill="#F6F7F9" fill-rule="nonzero" fill-opacity="0.69803923" />
        <path d="M314.37 414.48C 314.37 419.96973 312.42908 424.6555 308.54727 428.5373C 304.66547 432.41913 299.9797 434.36005 294.49 434.36002C 289.0003 434.36005 284.3145 432.41913 280.4327 428.5373C 276.5509 424.6555 274.61 419.96973 274.61 414.48C 274.61 408.99033 276.5509 404.30457 280.4327 400.42273C 284.3145 396.54092 289.0003 394.60004 294.49 394.6C 299.9797 394.60004 304.66547 396.54092 308.54727 400.42273C 312.42908 404.30457 314.37 408.99033 314.37 414.48C 314.37 414.71136 314.36597 414.94263 314.35788 415.17383" stroke="none" fill="#00C7FA" fill-rule="nonzero" fill-opacity="0.2" />
        <path d="M338.61 390.92L425.22998 390.92L425.22998 396.37003L338.61 396.37003L338.61 390.92zM338.61 404.81L382.74 404.81L382.74 410.26L338.61 410.26zM338.61 418.7L409.97998 418.7L409.97998 424.15002L338.61 424.15002zM338.61 432.59L425.22998 432.59L425.22998 438.04L338.61 438.04zM401.27 452.64L425.24 452.64L425.24 463.17L401.27 463.17z" stroke="none" fill="#00C7FA" fill-rule="nonzero" fill-opacity="0.2" />
        <path d="M419.31 72.2L610.27 72.2L610.27 178.91L419.31 178.91L419.31 72.2z" stroke="none" fill="#F6F7F9" fill-rule="nonzero" fill-opacity="0.69803923" />
        <path d="M475.15 119.57C 475.15 125.059715 473.2091 129.74548 469.32727 133.62729C 465.4455 137.5091 460.7597 139.45 455.27 139.45C 449.78027 139.45 445.09454 137.5091 441.2127 133.62729C 437.33093 129.74548 435.39 125.059715 435.38998 119.57C 435.39 114.08029 437.33093 109.39453 441.2127 105.51272C 445.09454 101.63091 449.78027 99.69001 455.27 99.69C 460.7597 99.69001 465.4455 101.63091 469.32727 105.51272C 473.2091 109.39453 475.15 114.08029 475.15 119.57C 475.15 119.80134 475.14597 120.03261 475.13788 120.2638" stroke="none" fill="#00C7FA" fill-rule="nonzero" fill-opacity="0.2" />
        <path d="M499.39 96.01L586.01 96.01L586.01 101.46L499.39 101.46L499.39 96.01zM499.39 109.9L543.52 109.9L543.52 115.35L499.39 115.35zM499.39 123.79L570.76 123.79L570.76 129.24L499.39 129.24zM499.39 137.69L586.01 137.69L586.01 143.14L499.39 143.14zM562.04 157.73L586.00995 157.73L586.00995 168.26L562.04 168.26z" stroke="none" fill="#00C7FA" fill-rule="nonzero" fill-opacity="0.2" />
        <path d="M482.87 251.36L673.83 251.36L673.83 358.07L482.87 358.07L482.87 251.36z" stroke="none" fill="#F6F7F9" fill-rule="nonzero" fill-opacity="0.69803923" />
        <path d="M538.7 298.74C 538.7001 304.2297 536.75916 308.91547 532.8773 312.79727C 528.9955 316.67908 524.3097 318.62 518.82 318.62C 513.3303 318.62 508.64456 316.67908 504.76273 312.79727C 500.88092 308.91547 498.94 304.2297 498.94 298.74C 498.94 293.2503 500.88092 288.5645 504.76273 284.6827C 508.64456 280.8009 513.3303 278.86 518.82 278.86C 524.3097 278.86 528.9955 280.8009 532.8773 284.6827C 536.75916 288.5645 538.7001 293.2503 538.7 298.74C 538.7001 298.97134 538.696 299.2026 538.68787 299.4338" stroke="none" fill="#00C7FA" fill-rule="nonzero" fill-opacity="0.2" />
        <path d="M562.95 275.18L649.57 275.18L649.57 280.63L562.95 280.63L562.95 275.18zM562.95 289.07L607.08 289.07L607.08 294.52002L562.95 294.52002zM562.95 302.96L634.32 302.96L634.32 308.41L562.95 308.41zM562.95 316.85L649.57 316.85L649.57 322.30002L562.95 322.30002zM625.6 336.9L649.56995 336.9L649.56995 347.43L625.6 347.43z" stroke="none" fill="#00C7FA" fill-rule="nonzero" fill-opacity="0.2" />
	</g>
    <path d="M191.88 135.71L512.99 135.71L512.99 317.15002L191.88 317.15002L191.88 135.71z" stroke="none" fill="url(#1)" />
    <path d="M194.15 137.96L510.75 137.96L510.75 314.89L194.15 314.89L194.15 137.96z" stroke="none" fill="#F6F7F9" fill-rule="nonzero" />
    <path d="M286.71 216.51C 286.71 225.61165 283.49207 233.3804 277.05624 239.81624C 270.6204 246.25209 262.85165 249.47 253.75 249.47C 244.64835 249.47 236.87961 246.25209 230.44376 239.81624C 224.00793 233.3804 220.79001 225.61165 220.79001 216.51C 220.79001 207.40834 224.00793 199.63959 230.44376 193.20375C 236.87961 186.76791 244.64835 183.54999 253.75 183.54999C 262.85165 183.54999 270.6204 186.76791 277.05624 193.20375C 283.49207 199.63959 286.71 207.40834 286.71 216.51C 286.71 216.89354 286.7033 217.27698 286.6899 217.66028" stroke="none" fill="#00C7FA" fill-rule="nonzero" fill-opacity="0.2" />
    <path d="M326.92 177.44L470.54 177.44L470.54 186.47L326.92 186.47L326.92 177.44zM326.92 200.48L400.08002 200.48L400.08002 209.51L326.92 209.51zM326.92 223.51L445.25 223.51L445.25 232.54L326.92 232.54zM326.92 246.54L470.54 246.54L470.54 255.56999L326.92 255.56999z" stroke="none" fill="#00C7FA" fill-rule="nonzero" fill-opacity="0.2" />
    <path d="M430.79 279.78L470.53 279.78L470.53 297.24L430.79 297.24L430.79 279.78z" stroke="none" fill="#00C7FA" fill-rule="nonzero" />
    <path d="M417.12 380.82L722.54004 380.82L722.54004 551.49L417.12 551.49L417.12 380.82z" stroke="none" fill="url(#232)" />
    <path d="M419.23 381.99L720.43005 381.99L720.43005 550.31L419.23004 550.31L419.23 381.99z" stroke="none" fill="#F6F7F9" fill-rule="nonzero" />
    <path d="M507.3 456.72C 507.30002 465.37982 504.2383 472.77145 498.11487 478.89487C 491.9915 485.0183 484.59985 488.08002 475.94 488.08002C 467.28018 488.08002 459.88855 485.0183 453.76514 478.89487C 447.64172 472.77145 444.58002 465.37982 444.58002 456.72C 444.58002 448.06018 447.64172 440.66858 453.76514 434.54514C 459.88855 428.42172 467.28018 425.36 475.94 425.36C 484.59985 425.36 491.9915 428.42172 498.11487 434.54514C 504.2383 440.66858 507.30002 448.06018 507.3 456.72C 507.30002 457.08496 507.29364 457.44977 507.28088 457.81445" stroke="none" fill="#00C7FA" fill-rule="nonzero" fill-opacity="0.2" />
    <path d="M545.54 419.55L682.17 419.55L682.17 428.13998L545.54 428.13998L545.54 419.55zM545.54 441.47L615.13995 441.47L615.13995 450.06L545.54 450.06zM545.54 463.38L658.11 463.38L658.11 471.97L545.54 471.97zM545.54 485.29L682.17 485.29L682.17 493.88L545.54 493.88z" stroke="none" fill="#00C7FA" fill-rule="nonzero" fill-opacity="0.2" />
    <path d="M644.36 516.91L682.17 516.91L682.17 533.51996L644.36 533.51996L644.36 516.91z" stroke="none" fill="#00C7FA" fill-rule="nonzero" fill-opacity="0.49803922" />
    <path transform="matrix(1 0 0 1 -88.27 -31.08)"  d="M171.13 319L171.87001 319.16C 171.65384 319.01175 171.3881 318.95428 171.13 319z" stroke="none" fill="url(#465)" />
    <path transform="matrix(1 0 0 1 -88.27 -31.08)"  d="M325.85 435.17C 323.64 420.33002 310.16 385.71002 310.16 385.71002C 309.92 384.71002 309.66 383.65002 309.36002 382.63004C 299.79 349.74005 286.55002 346.83005 286.55002 346.83005L286.55002 346.83005L239.12003 336.72006C 239.51147 336.96518 239.8512 337.28452 240.12003 337.66006L240.12003 337.66006L239.37003 337.78006C 237.1933 335.21252 235.75537 332.10165 235.21002 328.78006C 235.12003 328.29007 235.04002 327.78006 234.98003 327.26007C 241.8766 320.54367 245.53448 311.17477 245.01323 301.56226C 244.49197 291.9497 239.84244 283.0313 232.26003 277.10007C 231.77002 276.71005 231.26003 276.34006 230.74002 275.97006C 232.98003 273.60007 233.05002 270.29007 231.38002 266.97006C 227.64001 259.20007 219.52002 254.29007 211.16002 251.90005C 204.78001 250.07005 197.86002 249.48006 191.54002 251.48006C 187.93002 252.62006 184.65002 254.55006 181.27002 256.24005C 174.97002 259.39005 168.03001 261.88007 163.27002 267.05005C 162.16002 268.26004 161.15002 269.80005 161.47002 271.39005C 161.72002 272.58005 162.65001 273.49005 163.26001 274.55005C 164.61002 276.91003 164.26001 279.88004 163.35 282.45004C 162.44 285.02005 161.06001 287.45004 160.41 290.05005C 159.76 292.65005 160.02 295.79004 162 297.67004C 162.96198 298.42285 163.96338 299.1238 165 299.77005C 166.08647 300.68964 167.03903 301.75665 167.83 302.94006L167.83 302.94006L173.45 310.53006C 176.07335 313.8948 178.41463 317.47028 180.45 321.22006C 181.84 323.97006 182.93 326.92007 184.8 329.38007C 185.35016 330.11157 185.97707 330.78207 186.67 331.38007C 186.49 331.31006 186.3 331.25006 186.12 331.17007C 187.79355 332.80173 190.06453 333.67322 192.4 333.58008L192.4 333.58008L192.68 333.58008C 193.10869 333.57315 193.51913 333.4054 193.82999 333.11008L193.82999 333.11008L193.82999 334.11008C 193.93 337.76007 193.91998 341.64008 193.65999 345.2801L193.65999 345.2801L193.21999 345.0601C 191.88971 344.39212 190.29227 344.5601 189.12999 345.49008L189.12999 345.49008L145.43999 380.49008C 145.43999 380.49008 135.94998 393.49008 137.26999 415.89008L137.26999 415.89008L129.62 449.51007C 129.62 449.51007 120.049995 478.04007 127.409996 498.41006C 134.76999 518.78 139.04 530.41003 139.04 530.41003C 139.04 530.41003 141.98 553.55005 146.4 555.41003C 150.81999 557.27 152.73 558.33 152.73 558.33L152.73 558.33L153.61 563.86005C 153.61 563.86005 153.9 564.3901 154.42 565.31006C 157.64 570.9001 169.55 590.6401 176.48 588.54004C 177.34561 593.89813 177.72382 599.32367 177.61 604.75006L177.61 604.75006L184.45 650.75006C 184.45 650.75006 189.23 663.2601 188.94 669.81006C 188.65001 676.36005 194.53 685.68005 194.53 685.68005C 190.96034 692.2084 189.91403 699.8208 191.59 707.07007C 194.39 719.30005 197.92 775.7601 197.92 775.7601L197.92 775.7601L203.06999 789.44006L202.92 805.44006C 202.49356 808.03876 201.4053 810.4839 199.76 812.54004C 196.43999 816.14 196.65999 820.30005 188.76 825.21C 180.86 830.12 175.76 831.97003 175.76 838.52C 175.75085 839.42487 175.67061 840.32764 175.51999 841.22003C 174.77998 846.01 173.34999 848.59 188.01999 849.99005C 205.23999 851.62006 216.71999 840.38007 216.71999 840.38007C 216.71999 840.38007 219.24998 835.79004 231.18 833.94006C 231.18 833.94006 235.25 833.7201 235.48 830.11005C 235.56 828.87006 235.54 826.49005 235.43 823.87006C 235.23999 818.87006 234.76 813.05005 234.12999 812.7601C 233.34 812.4101 231.93999 807.38007 231.45999 805.56006L231.45999 805.56006L234.78 805.56006C 234.78 805.56006 237.87 782.42004 234.78 767.42004C 231.69 752.42004 234.49 741.81006 234.49 741.81006L234.49 741.81006L233.90001 702.23004C 233.90001 702.23004 229.73001 698.00006 233.00002 690.30005C 236.27002 682.60004 233.00002 644.46 233.00002 644.46C 233.00002 644.46 234.19002 630.78 237.57002 627.58C 240.95003 624.38 237.74002 607.53 237.57002 606.65L237.57002 606.65L243.57002 626.85004C 243.57002 626.85004 246.22002 667.02 251.82002 674.30005L251.82002 674.30005L253.44002 692.48004C 253.44002 692.48004 264.92 709.22003 262.71002 718.25006C 260.50003 727.2801 265.07 759.87006 265.07 759.87006L265.07 759.87006L265.07 793.2001C 265.07 793.2001 259.91 806.5901 267.13 811.3901L267.13 811.3901L270.24 811.2701C 269.18 812.2701 268.41998 813.6601 267.24 814.8901C 265.86 816.31006 265.08 821.7101 264.63998 826.3501C 264.27 830.2801 264.15 833.6601 264.15 833.6601C 264.15 833.6601 267.24 838.57007 272.97998 838.9001C 278.71997 839.2301 297.71 853.75006 297.71 853.75006C 297.71 853.75006 316.49 853.75006 321.34 852.75006L321.34 852.75006L321.63 852.68005C 323.18802 852.18353 324.49734 851.1103 325.29 849.68005C 326.26843 848.0241 326.58624 846.06006 326.18002 844.18005C 325.57004 841.31006 323.30002 838.18005 318.25003 835.49005C 305.66003 828.84 303.79004 822.62006 303.79004 822.62006L303.79004 822.62006L295.54004 810.2601L296.72003 810.2601C 296.72003 810.2601 295.99002 797.1601 304.96002 782.4601L304.96002 782.4601L304.38004 717.7001C 304.38004 717.7001 308.05005 695.43005 301.73004 683.3501C 301.73004 683.3501 301.21005 670.5401 305.44003 666.6101C 309.67 662.6801 299.81003 622.95013 299.81003 622.95013C 299.81003 622.95013 297.81003 601.6301 295.37003 582.17017C 305.30002 591.59015 315.61002 557.66016 317.37003 551.6302L317.37003 551.6302L317.63004 551.6302C 317.63004 551.6302 317.58005 551.4702 317.51004 551.1902C 317.44003 550.91016 317.63004 550.7602 317.63004 550.7602C 317.63004 550.7102 315.43002 542.9102 317.04004 544.5002C 318.65005 546.09015 322.64005 540.1402 322.64005 540.1402C 322.64005 540.1402 322.05005 507.6802 328.97003 491.3202C 335.89 474.96017 325.85004 435.1702 325.85004 435.1702L325.85004 435.1702L325.85 435.17zM296.26 455.82L296.31 455.73C 297.31 475.55002 296.11 517.84 296.11 517.84C 296.11 517.84 294.75 523.26 293.28998 529.64L293.28998 529.64L292.24 489.46002L291.24 451.62003zM169.53 442.16C 169.53 442.16 174.53 504.74 169.53 513.76C 168.1 516.33 166.91 520.9 165.92 526.13C 164.27 521.79 160.77 511.6 162.02 506.2C 163.64 499.2 158.78 480.87003 158.78 480.44C 158.78 480.00998 158.34 470.25 161.87 462.75C 165.4 455.25 163.04999 452.05 163.04999 452.05C 163.04999 452.05 165.99998 439.83 169.52998 442.15997z" stroke="none" fill="url(#695)" />
    <path d="M93.44 552.02C 89.090004 571.18 71.75 542.2 67.8 535.25L67.8 535.25L67 533.81L68.88 525L78.82 520.95C 80.39014 521.7711 81.87707 522.7423 83.26 523.85004C 88.73 528.09 96.8 537.18005 93.44 552.02zM227.94 520.66L227.83 521.08997C 227.83 521.22 227.74 521.37 227.69 521.55994C 225.99 527.55994 215.88 561.2199 206.12 551.86993C 195.44 541.6099 200.62999 518.0499 200.62999 518.0499L200.62999 518.0499L200.73 518.0499L223.2 515.74994L227.65 520.32996z" stroke="none" fill="#EFB7B9" fill-rule="nonzero" />
    <path d="M214.94 686.37L215.51001 750.65C 206.71 765.25 207.42001 778.25 207.42001 778.25L207.42001 778.25L178.42001 779.4C 171.34001 774.64 176.42001 761.35004 176.42001 761.35004L176.42001 761.35004L176.42001 728.26C 176.42001 728.26 171.89001 695.92 174.05002 686.92C 176.21002 677.92 164.95001 661.35 164.95001 661.35L164.95001 661.35L163.37001 643.3C 157.87001 636.08 155.27 596.2 155.27 596.2L155.27 596.2L149.36 576.2C 149.51 577.07 152.58 593.88 149.36 596.97003C 146.14 600.06006 144.88 613.73004 144.88 613.73004C 144.88 613.73004 148.06 651.58 144.88 659.23004C 141.70001 666.88007 145.74 671.23004 145.74 671.23004L145.74 671.23004L146.33 710.52C 146.33 710.52 143.58 721.07 146.61 735.95C 149.64 750.83 146.61 773.8 146.61 773.8L146.61 773.8L115.41 773.8L115.55 757.8L110.5 744.22C 110.5 744.22 107.03 688.17 104.29 676.04C 102.64311 668.845 103.66661 661.29663 107.17 654.8C 107.17 654.8 101.4 645.55 101.689995 639.05C 101.97999 632.55 97.28 620.13 97.28 620.13L97.28 620.13L90.56 574.48C 90.74924 565.6966 89.63032 556.93396 87.24 548.48C 83.329994 535.48 77.56 518.43 77.56 518.43L77.56 518.43L84.079994 519.01L116.99999 521.94C 116.99999 521.94 197 516.56 200.60999 521.03C 201.36993 522.48895 201.88351 524.0635 202.12999 525.69C 205.71999 541.84 210.46999 592.4 210.46999 592.4C 210.46999 592.4 220.15 631.84 215.98999 635.74005C 211.82999 639.6401 212.34999 652.35004 212.34999 652.35004C 218.54999 664.27 214.93999 686.37006 214.93999 686.37006L214.93999 686.37006L214.94 686.37z" stroke="none" fill="#444053" fill-rule="nonzero" />
    <path d="M147.29 798.14C 147.06 801.72003 143.06 801.94 143.06 801.94C 131.36 803.78 128.88 808.34 128.88 808.34C 128.88 808.34 117.61 819.49005 100.73 817.92004C 86.340004 816.54004 87.73 813.92004 88.47 809.22003C 88.61734 808.33417 88.69425 807.438 88.700005 806.54004C 88.700005 800.04004 93.700005 798.19006 101.490005 793.32007C 109.28001 788.4501 109.07001 784.32007 112.32001 780.75006C 115.57001 777.18005 115.90001 770.25006 115.90001 770.25006C 119.58001 763.85004 128.90001 771.25006 128.90001 771.25006C 129.33 773.5201 143.20001 773.25006 143.20001 773.25006C 143.20001 773.25006 145.04001 780.62006 145.98001 781.05005C 146.6 781.34 147.07 787.12006 147.26001 792.05005C 147.35 794.55005 147.36002 796.92004 147.29001 798.1401L147.29001 798.1401L147.29 798.14z" stroke="none" fill="#B07473" fill-rule="nonzero" />
    <path d="M147.29 798.14C 147.06 801.72003 143.06 801.94 143.06 801.94C 131.36 803.78 128.88 808.34 128.88 808.34C 128.88 808.34 117.61 819.49005 100.73 817.92004C 86.340004 816.54004 87.73 813.92004 88.47 809.22003C 94.9 810.82 107.2 813.04004 114.380005 809.14C 124.380005 803.72003 131.51001 799.93 131.51001 799.93L131.51001 799.93L147.24 791.92C 147.35 794.55 147.36 796.92 147.29001 798.13995L147.29001 798.13995L147.29 798.14z" stroke="none" fill="#000000" fill-rule="nonzero" fill-opacity="0.09803922" />
    <path d="M235.47 817.43C 234.70203 818.857 233.41212 819.93195 231.87 820.43C 231.77927 820.4627 231.68546 820.48615 231.59 820.5C 226.81999 821.5 208.4 821.5 208.4 821.5C 208.4 821.5 189.73 807.04 184.12999 806.71C 178.52998 806.38007 175.45999 801.51 175.45999 801.51C 175.45999 801.51 175.56999 798.15 175.93 794.25C 176.37 789.64 177.14 784.25 178.48999 782.87C 180.98999 780.27 181.48999 776.7 187.15999 778.97C 187.15999 778.97 195.15999 764.86 204.59999 775.75995L204.59999 775.75995L214.35999 790.56995C 214.35999 790.56995 216.19998 796.7399 228.55998 803.35C 233.50998 806 235.73997 809.12 236.32999 811.97C 236.7358 813.83344 236.42899 815.7814 235.46999 817.43L235.46999 817.43L235.47 817.43z" stroke="none" fill="#B07473" fill-rule="nonzero" />
    <path d="M235.47 817.43C 234.37 818.36 233.14 819.36 231.87 820.43C 231.77927 820.4627 231.68546 820.48615 231.59 820.5C 226.81999 821.5 208.4 821.5 208.4 821.5C 208.4 821.5 189.73 807.04 184.12999 806.71C 178.52998 806.38007 175.45999 801.51 175.45999 801.51C 175.45999 801.51 175.56999 798.15 175.93 794.25C 181.65999 795.97 190.35999 799 192.68999 802.25C 196.26 807.25 207.10999 814.16 207.10999 814.16C 207.10999 814.16 227.33998 812.22 236.32999 811.94995C 236.741 813.8198 236.43402 815.7759 235.46999 817.42993L235.46999 817.42993L235.47 817.43z" stroke="none" fill="#000000" fill-rule="nonzero" fill-opacity="0.09803922" />
    <path d="M156.73 313.28L130.06999 341.45C 130.06999 341.45 97.77999 339.07 103.41999 329.53C 106.28999 324.68 106.73999 314.53 106.48999 305.66998C 106.24999 297.13998 105.36999 289.87997 105.36999 289.87997C 105.36999 289.87997 150.65999 267.33997 147.18999 288.36C 146.45349 292.32242 146.40952 296.3825 147.05998 300.36C 149.02998 310.97998 156.72998 313.28 156.72998 313.28L156.72998 313.28L156.73 313.28z" stroke="none" fill="#EFB7B9" fill-rule="nonzero" />
    <path d="M147.18 288.36C 146.4435 292.32242 146.3995 296.3825 147.04999 300.36C 140.79388 306.6985 132.25589 310.2614 123.34999 310.25C 117.18999 310.25 110.59999 305.25 105.649994 302.3C 105.409996 293.77 105.35999 289.87997 105.35999 289.87997C 105.35999 289.87997 150.65 267.33997 147.18 288.36z" stroke="none" fill="#000000" fill-rule="nonzero" fill-opacity="0.09803922" />
    <path d="M156.73 275.14C 156.73523 290.71558 145.96791 304.22446 130.78348 307.69302C 115.599045 311.1616 100.03409 303.66776 93.27588 289.63477C 86.51767 275.6018 90.36279 258.76016 102.54165 249.05072C 114.720505 239.34126 131.99548 239.34512 144.17 249.06001C 152.10434 255.39139 156.72658 264.98914 156.73 275.14z" stroke="none" fill="#EFB7B9" fill-rule="nonzero" />
    <path d="M202.12 525.61C 193.81 545.39 140.34999 545.8 140.34999 545.8L140.34999 545.8L140.34999 524.24L137.10999 524.02997C 138.50998 530.19995 135.10999 545.25995 135.10999 545.25995C 92.859985 551.25995 82.569984 527.1699 82.569984 527.1699L82.569984 527.1699L84.02998 518.92993L116.94998 521.8599C 116.94998 521.8599 196.94998 516.4799 200.55998 520.94995C 201.3338 522.40643 201.86093 523.9811 202.11998 525.6099L202.11998 525.6099L202.12 525.61z" stroke="none" fill="#000000" fill-rule="nonzero" fill-opacity="0.09803922" />
    <path d="M140.35 543.2L140.35 521.63L137.11 521.43C 138.51 527.6 135.11 542.66 135.11 542.66C 103.32 547.13995 89.61 534.66 84.78 528.16C 83.916115 527.0429 83.17517 525.83594 82.57 524.56L82.57 524.56L95.46 451.97L98.46 345.14L103.11 326.40002L104.19 317.40002L104.19 317.30002L104.3 317.35L107.58 318.76L127.26 327.26L149.73 310.39L150.06 310.14L151.17 309.30002L153.02 310.79L157.61 314.47L172.35 409.61C 172.35 409.61 197.91 482.87 202.65001 512.44C 202.84001 513.62 203.00002 514.72003 203.12001 515.75C 206.23001 542.7 140.35 543.2 140.35 543.2z" stroke="none" fill="#E1E7EF" fill-rule="nonzero" />
    <path d="M131.62999 329.32C 131.62999 329.8447 131.44449 330.29254 131.0735 330.6635C 130.70251 331.03452 130.25467 331.22 129.73 331.22C 129.20532 331.22 128.75749 331.03452 128.38649 330.6635C 128.0155 330.29254 127.83 329.8447 127.829994 329.32C 127.83 328.79535 128.0155 328.3475 128.38649 327.9765C 128.75749 327.60553 129.20532 327.42 129.73 327.42C 130.25467 327.42 130.70251 327.60553 131.0735 327.9765C 131.44449 328.3475 131.62999 328.79535 131.62999 329.32C 131.62999 329.34213 131.62961 329.36423 131.62885 329.38632" stroke="none" fill="#67647E" fill-rule="nonzero" />
    <path d="M132.51 346.65C 132.51 347.17468 132.3245 347.6225 131.9535 347.9935C 131.58252 348.3645 131.13467 348.55 130.61 348.55C 130.08533 348.55 129.6375 348.3645 129.2665 347.9935C 128.89551 347.6225 128.71 347.17468 128.71 346.65C 128.71 346.1253 128.89551 345.6775 129.2665 345.3065C 129.6375 344.93552 130.08533 344.75 130.61 344.75C 131.13467 344.75 131.58252 344.93552 131.9535 345.3065C 132.3245 345.6775 132.51 346.1253 132.51 346.65C 132.51 346.67212 132.50961 346.6942 132.50885 346.7163" stroke="none" fill="#67647E" fill-rule="nonzero" />
    <path d="M134.4 374.72C 134.4 375.2447 134.21451 375.6925 133.8435 376.0635C 133.4725 376.4345 133.02467 376.62 132.5 376.62C 131.97534 376.62 131.5275 376.4345 131.1565 376.0635C 130.7855 375.6925 130.6 375.2447 130.6 374.72C 130.6 374.19534 130.7855 373.7475 131.1565 373.3765C 131.5275 373.0055 131.97534 372.82 132.5 372.82C 133.02467 372.82 133.4725 373.0055 133.8435 373.3765C 134.21451 373.7475 134.4 374.19534 134.4 374.72C 134.4 374.74213 134.39961 374.76422 134.39885 374.78632" stroke="none" fill="#67647E" fill-rule="nonzero" />
    <path d="M137.54999 404.94C 137.54999 405.4647 137.3645 405.91254 136.9935 406.2835C 136.6225 406.65454 136.17467 406.84003 135.65 406.84C 135.12534 406.84003 134.67749 406.65454 134.30649 406.2835C 133.9355 405.91254 133.75 405.4647 133.75 404.94C 133.75 404.41534 133.9355 403.9675 134.30649 403.5965C 134.67749 403.22552 135.12534 403.04004 135.65 403.04C 136.17467 403.04004 136.6225 403.22552 136.9935 403.5965C 137.3645 403.9675 137.54999 404.41534 137.54999 404.94C 137.54999 404.96213 137.54962 404.98422 137.54884 405.00632" stroke="none" fill="#67647E" fill-rule="nonzero" />
    <path d="M139.43999 433.33C 139.43999 433.85468 139.25449 434.30252 138.8835 434.6735C 138.51251 435.0445 138.06467 435.22998 137.54 435.22998C 137.01532 435.22998 136.56749 435.0445 136.19649 434.6735C 135.8255 434.30252 135.64 433.85468 135.64 433.33C 135.64 432.80533 135.8255 432.35748 136.19649 431.98648C 136.56749 431.61548 137.01532 431.43 137.54 431.43C 138.06467 431.43 138.51251 431.61548 138.8835 431.98648C 139.25449 432.35748 139.43999 432.80533 139.43999 433.33C 139.43999 433.3521 139.4396 433.3742 139.43884 433.3963" stroke="none" fill="#67647E" fill-rule="nonzero" />
    <path d="M141.34 463.56C 141.34 464.08472 141.15451 464.53253 140.78351 464.9035C 140.4125 465.2745 139.96468 465.46002 139.44 465.46C 138.91534 465.46002 138.4675 465.2745 138.0965 464.9035C 137.72551 464.53253 137.54001 464.08472 137.54001 463.56C 137.54001 463.03534 137.72551 462.5875 138.0965 462.2165C 138.4675 461.84552 138.91534 461.66003 139.44 461.66C 139.96468 461.66003 140.4125 461.84552 140.78351 462.2165C 141.15451 462.5875 141.34 463.03534 141.34 463.56C 141.34 463.58215 141.33963 463.60425 141.33885 463.6263" stroke="none" fill="#67647E" fill-rule="nonzero" />
    <path d="M140.57999 493.47C 140.57999 493.9947 140.3945 494.44254 140.0235 494.8135C 139.6525 495.1845 139.20467 495.37 138.68 495.37C 138.15533 495.37 137.70749 495.1845 137.33649 494.8135C 136.9655 494.44254 136.78 493.9947 136.78 493.47C 136.78 492.9453 136.9655 492.4975 137.33649 492.1265C 137.70749 491.75552 138.15533 491.57 138.68 491.57C 139.20467 491.57 139.6525 491.75552 140.0235 492.1265C 140.3945 492.4975 140.57999 492.9453 140.57999 493.47C 140.57999 493.49213 140.5796 493.51425 140.57884 493.53632" stroke="none" fill="#67647E" fill-rule="nonzero" />
    <path d="M105.53 462.53C 105.53 462.53 103.409996 490.33 99.53 498.41C 95.65 506.49002 93.89 529.18 93.89 529.18L93.89 529.18L84.89 528.18C 84.026115 527.0629 83.28517 525.85596 82.68 524.58L82.68 524.58L95.57 451.99002L98.57 345.16003L103.22 326.42004L104.3 317.42004C 104.33512 317.3935 104.37641 317.37628 104.420006 317.37006C 105.44307 316.88672 106.63245 316.90518 107.64001 317.42004L107.64001 317.42004L108.08001 317.64005C 107.95001 318.01004 107.82001 318.39005 107.70001 318.78006C 104.180016 329.83005 102.860016 350.21005 102.860016 350.21005C 102.860016 350.21005 107.92001 387.48004 108.49001 404.82007C 109.06001 422.1601 105.530014 462.53006 105.530014 462.53006L105.530014 462.53006L105.53 462.53z" stroke="none" fill="#000000" fill-rule="nonzero" fill-opacity="0.09803922" />
    <path d="M83.26 523.85C 83.16078 524.08014 83.047226 524.3039 82.920006 524.51996C 79.41 530.44995 70.51001 534.22 67.8 535.24994L67.8 535.24994L67 533.80994L68.88 524.99994L78.82 520.94995C 80.39014 521.77106 81.87707 522.74225 83.26 523.85z" stroke="none" fill="#000000" fill-rule="nonzero" fill-opacity="0.09803922" />
    <path d="M59.2 381.98L50.97 386.92L43.45 420.29C 43.45 420.29 34.06 448.61002 41.29 468.83002C 48.52 489.05002 52.73 500.58002 52.73 500.58002C 52.73 500.58002 55.62 523.58 59.95 525.43C 64.28 527.27997 66.17 528.32 66.17 528.32L66.17 528.32L67.03 533.81C 67.03 533.81 78.79 529.81 82.95 522.81C 87.10999 515.81 79.89 498.3 79.89 498.3C 79.89 498.3 73.68 483.41998 75.27 476.49C 76.85999 469.56 72.09 451.34998 72.09 450.91998C 72.09 450.49 71.659996 440.8 75.09 433.36C 78.52 425.91998 76.25 422.75 76.25 422.75L76.25 422.75L74.08 401.51L59.2 381.98z" stroke="none" fill="#67647E" fill-rule="nonzero" />
    <path d="M202.8 519.36C 202.8 519.36 180.99 527.6 174.05 520.36C 167.11 513.12 167.84 479.36 167.84 479.36C 167.84 479.36 161.2 416.94998 157 406.69998C 152.8 396.44998 155 322.46997 155 322.46997C 155 322.46997 152.16 312.91998 149.73 310.38998C 149.57715 310.22354 149.40219 310.07886 149.20999 309.96L149.20999 309.96L150.06 310.13998L153.06 310.78998L157.65 314.46997L172.39 409.61C 172.39 409.61 197.95 482.87 202.69 512.44L202.69 512.44L202.8 519.36z" stroke="none" fill="#000000" fill-rule="nonzero" fill-opacity="0.09803922" />
    <path d="M227.94 521.53L227.69 521.53C 224.95 521.88 200.69 524.81006 200.6 519.77C 200.60043 519.1853 200.63382 518.601 200.70001 518.02L200.70001 518.02L223.17001 515.72003L227.62001 520.30005C 227.70001 520.60004 227.77 520.86005 227.83002 521.06006L227.83002 521.06006L227.94 521.53z" stroke="none" fill="#000000" fill-rule="nonzero" fill-opacity="0.09803922" />
    <path d="M204.73 348.55L220.68 356.86C 220.68 356.86 233.90999 391.21997 236.07999 405.96C 236.07999 405.96 245.9 445.43 239.07999 461.66C 232.25998 477.89 232.86998 510.12 232.86998 510.12C 232.86998 510.12 228.96999 516.04 227.37997 514.45C 225.78996 512.86005 227.95998 520.66003 227.95998 520.66003C 227.95998 520.66003 200.72998 524.28 200.59998 518.92004C 200.46997 513.56006 206.84998 488.00003 206.84998 488.00003C 206.84998 488.00003 208.57997 427.18002 206.11998 417.65002C 203.65999 408.12003 204.72998 348.55002 204.72998 348.55002L204.72998 348.55002L204.73 348.55z" stroke="none" fill="#67647E" fill-rule="nonzero" />
    <path d="M157.15 413.33C 157.15 413.33 148.15 435.28 145.29999 436.72998C 142.44998 438.17996 145.87999 443.94998 145.87999 443.94998C 145.87999 443.94998 162.20999 421.12997 157.15 413.33zM151.81 336.32C 151.91 335.9 141.11 346.91 138.23 348.55002C 135.34999 350.19003 148.73 348.46002 151.81 336.32zM121.73 411.59C 121.73 411.59 105.26 422.25 107.420006 426.44998C 109.58001 430.64996 121.73 411.59 121.73 411.59zM151.66 567.04C 151.66 567.04 165.66 576.04 187.49 578.31zM118 588.71C 118 588.71 131 605.03 136.93 605.47003C 142.85999 605.91003 118 588.71 118 588.71zM136.2 652.71C 135.62 653 128.83 667.44 121.899994 667.88C 114.969986 668.32 136.2 652.71 136.2 652.71zM196.45 684.34C 196.45 684.34 209.33 681.46 212.19 690.7C 212.19 690.7 211.33 687.81 196.45 684.34zM187.78 737.22C 187.78 737.22 203.38 734.04 206.7 738.37994C 210.01999 742.7199 187.78 737.22 187.78 737.22zM143.62 744.59C 143.62 744.73004 127.729996 747.77 128.36 749.79004C 128.99 751.81006 145.3 751.52 145.88 748.34C 146.10568 747.5418 145.99078 746.6857 145.56262 745.9753C 145.13445 745.26483 144.43121 744.76337 143.62001 744.59zM182.58 758.31C 182.58 758.31 208.68001 755.13 207.04001 760.62C 205.40001 766.11 182.58002 758.31 182.58002 758.31zM45.91 436.73C 46.06 437.16 63.1 439.47 65.41 444.96002C 65.41 444.96002 48.660004 437.16003 46.060005 437.16003zM69.89 481.37C 69.89 481.37 55.73 485.85 56.73 492.63998C 57.73 499.42996 55.3 489.46997 69.89 481.37zM63.29 515.75C 63.29 515.75 68.45 508.67 73.36 509.97C 78.270004 511.27 63.29 515.75 63.29 515.75zM144.16 249.06C 143.66092 249.54137 143.10318 249.95798 142.5 250.3C 138.39 252.68001 137.29 256.3 135.32 260.57C 133.52 264.44 131.53001 268.57 127.880005 270.73C 123.18001 273.56 116.98 272.52002 112.090004 275C 107.65713 277.32288 105.07178 282.09827 105.55 287.08C 105.86781 288.95782 106.336 290.8071 106.950005 292.61C 108.05328 296.5111 108.55571 300.55753 108.44 304.61C 108.45478 304.73288 108.45478 304.8571 108.44 304.97998C 97.01069 299.27747 89.837616 287.55276 89.9642 274.78046C 90.0908 262.00818 97.49486 250.42795 109.03495 244.95311C 120.57504 239.47827 134.22758 241.06885 144.2 249.04999z" stroke="none" fill="#000000" fill-rule="nonzero" fill-opacity="0.09803922" />
    <path d="M143.29 239.02C 139.62 231.31 131.65 226.44 123.45 224.02C 117.189995 222.21 110.399994 221.62001 104.189995 223.61C 100.649994 224.74 97.42 226.61 94.10999 228.33C 87.91999 231.46 81.10999 233.93001 76.45999 239.07C 75.37999 240.26001 74.37999 241.8 74.69999 243.38C 74.93999 244.56 75.85999 245.46 76.44999 246.51001C 77.77999 248.85 77.44999 251.8 76.539986 254.35C 75.62998 256.90002 74.29999 259.28 73.65999 261.9C 73.01999 264.52 73.26999 267.59 75.20999 269.46C 76.14729 270.2026 77.121864 270.89682 78.12999 271.53998C 79.1898 272.4616 80.121414 273.52103 80.89999 274.68997L80.89999 274.68997L86.40999 282.21997C 89.00143 285.56183 91.30947 289.1142 93.30999 292.83997C 94.68999 295.56998 95.74999 298.48996 97.57999 300.92996C 99.40998 303.36996 102.27998 305.32996 105.319984 305.05997C 105.79666 305.076 106.25149 304.85977 106.539986 304.47998C 106.6595 304.2416 106.71466 303.9762 106.69999 303.71C 106.8244 299.6571 106.3218 295.60938 105.20999 291.71C 104.59599 289.90714 104.12781 288.05786 103.80999 286.18C 103.33456 281.19885 105.91911 276.42493 110.34999 274.1C 115.24999 271.63 121.44999 272.67 126.149994 269.84C 129.79999 267.63 131.79 263.54 133.59 259.66998C 135.59 255.43999 136.66 251.77998 140.76999 249.39998C 144.87997 247.01997 145.31999 243.06998 143.29 239.01997L143.29 239.01997L143.29 239.02z" stroke="none" fill="#585268" fill-rule="nonzero" />
    <path d="M128.34 784.5C 128.34 784.5 133.42 791 132.12 794.68C 130.81999 798.36 128.34 784.5 128.34 784.5zM197.41 800.75C 197.41 800.75 198.54001 792.03 203.09 791.95C 207.63998 791.87 207.86 791.48004 211.33 792.81C 214.8 794.13995 218.05 796.22 217.02 796.54C 215.99 796.86 211.02 791.54 206.02 794.25C 202.8434 795.9775 199.9416 798.16815 197.41 800.75zM113.11 338.15L127.35 328.15C 127.35 328.15 106.44 315.79 103.95 317.53C 101.45999 319.27 99.75 334.87 99.75 334.87z" stroke="none" fill="#000000" fill-rule="nonzero" fill-opacity="0.09803922" />
    <path d="M113.05 337.5L127.350006 327.26C 127.350006 327.26 106.44 314.91 103.950005 316.64C 101.46001 318.37003 99.75001 334.85 99.75001 334.85L99.75001 334.85L113.05 337.5z" stroke="none" fill="#E1E7EF" fill-rule="nonzero" />
    <path d="M113.05 337.5L127.350006 327.26C 127.350006 327.26 106.44 314.91 103.950005 316.64C 101.46001 318.37003 99.75001 334.85 99.75001 334.85L99.75001 334.85L113.05 337.5z" stroke="none" fill="#000000" fill-rule="nonzero" fill-opacity="0.02745098" />
    <path d="M106.31 316.76L105.88 316.54C 104.580826 315.87717 103.01316 316.04178 101.88 316.96002L101.88 316.96002L59 351.75C 59 351.75 49.68 364.64 51 386.89L51 386.89L76.28 422.72003C 76.28 422.72003 79.17 410.58002 82.64 412.89005C 82.64 412.89005 87.55 475.01004 82.64 483.97003C 77.729996 492.93002 75.56 526.44006 75.56 526.44006L75.56 526.44006L92.17 528.32007C 92.17 528.32007 93.9 505.64008 97.799995 497.55008C 101.69999 489.46008 103.799995 461.6601 103.799995 461.6601C 103.799995 461.6601 107.31 421.27008 106.729996 403.9201C 106.149994 386.57013 101.1 349.3201 101.1 349.3201C 101.1 349.3201 102.51 327.4801 106.31 316.7601L106.31 316.7601L106.31 316.76z" stroke="none" fill="#67647E" fill-rule="nonzero" />
    <path d="M149.02 331.81L131.21 325.21C 131.21 325.21 153.90001 300.37 156.72 314.15L156.72 314.15L149.02 331.81z" stroke="none" fill="#000000" fill-rule="nonzero" fill-opacity="0.09803922" />
    <path d="M149.02 330.92L131.21 324.33002C 131.21 324.33002 153.90001 299.48 156.72 313.26L156.72 313.26L149.02 330.92z" stroke="none" fill="#E1E7EF" fill-rule="nonzero" />
    <path d="M149.02 330.92L131.21 324.33002C 131.21 324.33002 153.90001 299.48 156.72 313.26L156.72 313.26L149.02 330.92z" stroke="none" fill="#000000" fill-rule="nonzero" fill-opacity="0.02745098" />
    <path d="M148.45 309.81C 148.70358 309.7641 148.96509 309.8178 149.18 309.96L149.18 309.96L148.45 309.81z" stroke="none" fill="#000000" fill-rule="nonzero" fill-opacity="0.09803922" />
    <path d="M150.18 308.07L197.45999 318.27002C 197.45999 318.27002 210.45999 321.16003 219.84999 353.80002C 229.23999 386.44 206.98999 426.45 206.98999 426.45L206.98999 426.45L202.07999 422.28L204.54 517.63C 204.54 517.63 182.72 525.86 175.79 518.63C 168.85999 511.40002 169.56999 477.63 169.56999 477.63C 169.56999 477.63 162.93 415.2 158.73 404.92C 154.53 394.64 156.73 320.69 156.73 320.69C 156.73 320.69 152.81999 307.5 150.18 308.07z" stroke="none" fill="#67647E" fill-rule="nonzero" />
    <path d="M193.41 368.83C 192.74 369.44998 191.97 398.3 194.86 420.25998C 196.63342 433.63324 199.37057 446.8611 203.05 459.83997L203.05 459.83997L198.76001 371.83997C 198.76001 371.83997 195.43001 366.91995 193.41 368.82996L193.41 368.82996L193.41 368.83zM187.63 343.98C 188.79001 344.7 193.85 356.69 191.53 361.61002C 189.20999 366.53003 187.63 343.98 187.63 343.98zM143.01 239.02C 140.6945 234.4487 137.07982 230.66354 132.62 228.14C 135.93114 230.50128 138.60721 233.64453 140.40999 237.29C 142.40999 241.34 141.84999 245.4 137.87999 247.7C 133.90999 250 132.66998 253.7 130.70999 257.97C 128.90999 261.84 126.90999 265.97 123.259995 268.13C 118.56 270.97 112.369995 269.93 107.46999 272.39C 103.03751 274.71838 100.45312 279.49594 100.92999 284.48C 101.24307 286.35886 101.711334 288.20847 102.329994 290.01C 103.43984 293.9096 103.939095 297.95758 103.81 302.01C 103.82731 302.27533 103.775635 302.5406 103.659996 302.78C 103.3715 303.15982 102.91667 303.37604 102.439995 303.36C 101.21598 303.456 99.98824 303.22836 98.88 302.69998C 100.5134 304.31586 102.74417 305.1814 105.03999 305.09C 105.51667 305.10602 105.9715 304.8898 106.259995 304.51C 106.37499 304.27008 106.4299 304.00583 106.42 303.74002C 106.539474 299.6874 106.036964 295.64038 104.93 291.74002C 104.31134 289.9385 103.84308 288.0889 103.53 286.21002C 103.05457 281.22888 105.63913 276.45496 110.07 274.13004C 114.97 271.66003 121.16 272.70004 125.86 269.87003C 129.51 267.66003 131.51 263.57004 133.31 259.7C 135.31 255.47002 136.37 251.81001 140.48 249.43001C 144.59 247.05 145.03 243.07 143.01 239.02z" stroke="none" fill="#000000" fill-rule="nonzero" fill-opacity="0.09803922" />
    <path d="M927.23 761.73C 927.23 758.6206 945.5863 756.1 968.23 756.1C 990.87366 756.1 1009.23 758.6206 1009.23 761.73C 1009.23 764.83936 990.87366 767.36 968.23 767.36C 945.5863 767.36 927.23 764.83936 927.23 761.73" stroke="none" fill="#00C7FA" fill-rule="nonzero" fill-opacity="0.09803922" />
    <path d="M617.68 814.56C 617.68 812.3508 630.72644 810.56 646.82 810.56C 662.9136 810.56 675.96 812.3508 675.96 814.56C 675.96 816.76917 662.9136 818.56 646.82 818.56C 630.72644 818.56 617.68 816.76917 617.68 814.56" stroke="none" fill="#00C7FA" fill-rule="nonzero" fill-opacity="0.09803922" />
    <path d="M356.94 784.91C 356.94 782.7008 369.98645 780.91 386.08002 780.91C 402.17358 780.91 415.22003 782.7008 415.22003 784.91C 415.22003 787.11914 402.17358 788.91 386.08002 788.91C 369.98645 788.91 356.94 787.11914 356.94 784.91" stroke="none" fill="#00C7FA" fill-rule="nonzero" fill-opacity="0.09803922" />
    <path d="M402.13 775.81C 403.96585 774.3145 405.30194 772.2947 405.96 770.02C 406.46 767.73004 405.47998 764.97003 403.28 764.13C 400.82 763.19 398.19 764.9 396.2 766.62C 394.21002 768.33997 391.92 770.31 389.32 769.94C 392.0453 767.4643 393.2747 763.74194 392.56 760.13C 392.44196 759.3955 392.1314 758.70544 391.66 758.13C 390.29 756.67 387.81 757.3 386.18 758.45C 380.97998 762.10004 379.53 769.17 379.5 775.52C 378.98 773.23004 379.42 770.84 379.4 768.52C 379.37997 766.2 378.75 763.52 376.75998 762.30005C 375.53693 761.6229 374.15778 761.27814 372.75998 761.30005C 370.43 761.21 367.81998 761.4501 366.22998 763.16003C 364.22998 765.28 364.75998 768.84 366.47998 771.16003C 368.19998 773.48004 370.83 774.97003 373.24997 776.58C 375.18588 777.73425 376.8368 779.31 378.07996 781.19C 378.22977 781.45276 378.35046 781.7311 378.43994 782.02L378.43994 782.02L393.09995 782.02C 396.3728 780.361 399.4096 778.2726 402.12994 775.81L402.12994 775.81L402.13 775.81zM984.86 754.71C 986.7073 753.2172 988.057 751.1979 988.73 748.92004C 989.23 746.63007 988.25 743.92004 986.05 743.03C 983.58997 742.09 980.95996 743.80005 978.97 745.52C 976.98 747.24 974.68994 749.21 972.07996 748.84C 974.81384 746.3699 976.0449 742.6426 975.31995 739.03C 975.2121 738.29254 974.9004 737.59985 974.4199 737.03C 973.05994 735.57 970.5799 736.2 968.94995 737.35004C 963.74994 741.00006 962.2999 748.07 962.26996 754.42004C 961.7399 752.13007 962.18994 749.74005 962.17 747.42004C 962.15 745.10004 961.51 742.42004 959.52997 741.2001C 958.3069 740.52295 956.9278 740.17816 955.52997 740.2001C 953.18994 740.11005 950.58997 740.3501 948.99 742.06006C 946.99 744.18005 947.52 747.74005 949.25 750.06006C 950.98 752.38007 953.6 753.87006 956.02 755.48004C 957.95593 756.63434 959.6069 758.21 960.85004 760.09C 960.9958 760.3548 961.1163 760.6327 961.21 760.92004L961.21 760.92004L975.86005 760.92004C 979.1235 759.26056 982.15027 757.17206 984.86005 754.71zM654.73 801.46C 656.5653 799.9621 657.90405 797.94354 658.57 795.67004C 659.06 793.37006 658.08 790.67004 655.89 789.78C 653.43 788.84 650.8 790.54004 648.81 792.27C 646.82 794 644.52997 795.95 641.92 795.59C 644.6504 793.1177 645.8808 789.39233 645.16 785.78C 645.04663 785.0441 644.7356 784.35284 644.25995 783.78C 642.88995 782.32 640.4199 782.95 638.77997 784.10004C 633.57996 787.76 632.12994 794.82 632.1 801.18005C 631.57996 798.8901 632.01996 796.50006 632.00995 794.18005C 631.99994 791.86005 631.35 789.18005 629.36993 787.9601C 628.1457 787.286 626.76733 786.9414 625.36993 786.9601C 623.0299 786.88007 620.42993 787.1101 618.82996 788.82007C 616.82996 790.9501 617.36 794.5101 619.08997 796.82007C 620.81995 799.13007 623.43994 800.62006 625.85 802.24005C 627.8116 803.4084 629.48065 805.00903 630.73 806.92004C 630.87384 807.18225 630.9943 807.45667 631.08997 807.74005L631.08997 807.74005L645.73 807.74005C 648.9996 806.0623 652.02704 803.94977 654.73 801.46z" stroke="none" fill="#00C7FA" fill-rule="nonzero" />
    <path transform="matrix(1 0 0 1 -88.27 -31.08)"  d="M1036.86 376.24C 1023.74 375.97998 1012.16 366.68 1005.6 355.4C 1003.8818 352.7058 1002.801 349.65503 1002.44 346.47998C 1002.4859 345.75613 1002.6065 345.03897 1002.8 344.33997C 1003.2212 343.2822 1003.5556 342.19193 1003.8 341.07996C 1003.855 340.635 1003.855 340.18494 1003.8 339.73996L1003.8 339.73996L1003.8 339.67996C 1004.12 337.25995 1002.7 334.92996 1000.92 333.25995C 999.13995 331.58994 996.97 330.37994 995.13995 328.76996C 989.49994 323.81995 987.79 315.87994 987.67993 308.31995L987.67993 308.31995L987.67993 307.91995C 987.7399 304.68994 987.99994 301.43994 987.9699 298.19995C 988.015 296.35995 987.9348 294.51907 987.7299 292.68994C 987.18994 288.10995 985.4499 283.44995 981.8499 280.52994C 972.4599 272.91995 956.6699 280.83994 946.9599 273.63992C 944.5899 271.88992 942.6799 269.27994 939.8199 268.63992C 937.6499 268.11993 935.3999 268.81992 933.28986 269.51993C 926.1299 271.8799 918.14984 274.98993 915.34985 281.94992C 913.7499 285.94992 914.1998 290.4399 912.72986 294.45993C 911.72986 297.14993 909.95984 299.45993 908.63983 302.01993C 907.55133 303.9394 907.02136 306.12506 907.1098 308.32993C 906.9989 309.4713 907.1599 310.62274 907.5798 311.6899C 908.0743 312.9645 908.87036 314.10025 909.8998 314.9999C 909.5234 315.79315 909.05334 316.53845 908.49976 317.2199C 906.66974 319.4599 903.85974 321.0599 901.9598 323.2199C 898.43976 327.2999 898.56976 332.8499 900.30975 337.6499C 902.04974 342.4499 905.16974 346.81992 907.30975 351.4899C 908.23975 353.4899 908.98975 355.7899 908.0198 357.8099C 907.3498 359.2099 905.94977 360.2699 904.8598 361.47992C 903.2633 363.27127 902.26373 365.51498 901.9998 367.89993C 880.5698 372.78995 880.5598 389.99994 880.5598 389.99994L880.5598 389.99994L869 419.14C 869 419.14 867.15 424.04 865 430.51L865 430.51L851.3 428.06L860.76 444C 858.95 450.49 857.68 456.51 858.10004 459.53C 858.10004 459.53 853.85004 479.53 861.41003 483.02L861.41003 483.02L878.11005 490.53C 878.8306 490.96747 879.6079 491.30396 880.42004 491.53L880.42004 491.53L881.10004 491.83C 881.592 492.0715 882.168 492.0715 882.66003 491.83L882.66003 491.83L882.93005 491.83C 883.2698 491.86453 883.61285 491.8165 883.93005 491.68997C 884.3052 491.49368 884.59906 491.17148 884.7601 490.77997C 884.76385 490.7501 884.76385 490.71988 884.7601 490.68997L884.7601 490.68997L889.7601 489.23996L894.00006 494.23996C 895.91003 495.57996 897.7801 496.74997 899.61005 497.79996L899.61005 497.79996L893.09 562.99994C 893.09 562.99994 892.03 649.6599 888.84 669.38995C 887.65 676.69995 887.64 681.67993 888.09 685.06995L888.09 685.06995L887.97003 685.2899C 888.76 690.8599 890.81006 691.9599 890.81006 691.9599L890.81006 691.9599L890.81006 691.8799L890.93005 691.9599C 891.89594 689.4309 893.0422 686.9747 894.36005 684.6099L894.36005 684.6099L894.36005 686.0299C 894.30005 693.3899 894.07007 703.67993 893.36005 710.36993C 892.06006 721.74994 896.67004 759.44995 896.67004 759.44995L896.67004 759.44995L898.2601 793.74994C 898.5181 799.5691 897.16876 805.347 894.36005 810.44995C 890.59 817.2999 885.68005 826.92993 885.36005 831.19995C 885.3454 831.43304 885.3454 831.6668 885.36005 831.89996L885.36005 831.89996L877.00006 841.62994C 877.00006 841.62994 873.80005 846.55994 881.00006 848.5499C 884.87006 849.62994 891.56006 848.5499 896.92004 847.2799C 901.74634 846.1723 905.1706 841.88165 905.18005 836.92993C 906.56104 832.20526 908.88055 827.8077 912 824L912 824L913.35 831.89L922.35 834.12L923.5 812.49C 923.9674 811.2728 924.1785 809.97235 924.12 808.67C 925.89 793.29 919.95 794.67 919.95 794.67C 920.10077 794.8152 920.2022 795.004 920.24 795.20996C 920.14 795.04 920.04 794.86 919.95 794.67993C 916.3 787.4799 918.09 775.67993 918.09 775.67993C 918.09 775.67993 922.82 741.3999 924.48004 732.3499C 925.65 725.9599 925.17004 705.0199 924.78 693.2899C 924.78 692.7999 924.78 692.2899 924.73004 691.87994C 938.66003 691.69995 955.73004 691.22 967.73004 690.05994L967.73004 690.05994L967.73004 691.4799L965.5101 772.4799C 965.36096 777.64105 964.31537 782.737 962.42004 787.5399C 962.42004 787.62994 962.34 787.7199 962.31006 787.80994C 959.6549 794.5768 958.14105 801.73737 957.8301 808.99994L957.8301 808.99994L956.8301 834.7399L956.8301 835.44995C 955.0401 836.13995 952.2201 838.12994 952.1401 843.89996C 952.0201 852.35 966.9101 849.52997 966.9101 849.52997C 981.8001 849.52997 981.9101 834.02997 981.9101 834.02997C 981.9101 834.02997 982.3901 819.81995 983.0901 810.31C 983.7901 800.80005 980.8501 802.9 980.8501 802.9L980.8501 802.9L980.6301 829.9L980.6301 830.11005L980.6301 806.4L980.8601 802.96L980.8601 802.86005L980.9101 802.13007L982.7601 774.23004C 982.7601 774.23004 996.4701 727.73004 998.6001 718.81006C 1000.1101 712.48004 999.4801 693.38007 998.9801 682.81006C 998.9801 682.32007 998.9801 681.86005 998.9201 681.41003C 1003.1601 681.03 1006.9201 680.99005 1008.4301 680.99005L1008.4301 680.99005L1009.1201 680.99005C 1009.1201 680.99005 1008.4101 606.31006 1006.64014 578.13007C 1004.8702 549.9501 1002.03015 524.23004 994.9301 516.48004C 990.6501 511.80005 984.6801 497.34003 980.6201 486.63004C 989.0874 490.29712 997.8745 493.17593 1006.8701 495.23004C 1029.3301 499.93005 1026.2601 480.43005 1026.2601 480.43005L1026.2601 480.43005L1023.9801 443.56006L1024.1301 443.56006C 1024.0482 433.90048 1023.2191 424.26178 1021.65015 414.73007C 1020.47015 407.42007 1018.65015 399.86008 1015.8701 393.73007C 1018.3101 392.80008 1020.71014 391.73007 1023.0701 390.73007C 1029.1702 388.04007 1036.0701 384.22006 1036.9302 377.64008L1036.9302 377.64008L1036.6301 377.64008C 1036.7428 377.18005 1036.8197 376.71198 1036.8601 376.24008L1036.8601 376.24008L1036.86 376.24zM897.64 429.58C 897.7 433.38998 897.55 439.99 897.33 447.3L897.33 447.3L890.2 437.78L897.35004 426.18zM996.2 463.28998L984.32 459.46997C 986.4289 456.18524 988.89014 453.1405 991.66003 450.38998L991.66003 450.38998L992.66003 449.38998L992.29004 449.46997L992.87006 448.94998L993.2101 448.87L992.6601 449.38998L993.3101 449.25998C 994.02765 452.2445 995.41235 455.0276 997.3601 457.4C 1001.6001 462.12 996.1601 463.29 996.1601 463.29z" stroke="none" fill="url(#928)" />
    <path d="M835.72 774.95L834.31995 801.29004L825.45996 799.08L823.58997 788.12L835.72 774.95z" stroke="none" fill="#A27772" fill-rule="nonzero" />
    <path d="M835.72 774.95L834.31995 801.29004L825.45996 799.08L823.58997 788.12L835.72 774.95z" stroke="none" fill="#000000" fill-rule="nonzero" fill-opacity="0.09803922" />
    <path d="M868.24 804.79L881.76 807.58997L891.76 798.73L891.76 773.77997L891.98 770.37L891.98 770.27L892.02997 769.55005L893.85 741.85004C 893.85 741.85004 907.37 695.68005 909.47 686.85004C 910.95996 680.56006 910.33997 661.59 909.85 651.11005C 909.64996 646.81006 909.47 643.94006 909.47 643.94006L909.47 643.94006L879.62994 636.7101L878.99994 659.7101L876.81995 740.1101C 876.6712 745.2328 875.63586 750.2909 873.75995 755.0601L873.75995 755.0601L873.66 755.33014C 871.0615 762.0657 869.5983 769.18567 869.32996 776.40015L869.32996 776.40015L868.32996 801.95013L868.32996 802.66016L868.24 804.79z" stroke="none" fill="#CC818C" fill-rule="nonzero" />
    <path d="M892.02 769.56L892.02 770.27L892.07 769.55005L892.02 769.56zM868.24 804.79L881.76 807.58997L891.76 798.73L891.76 796.61C 891.69775 797.5676 891.15607 798.42896 890.32 798.89996L890.32 798.89996L890.18 798.98C 885.5232 801.4457 880.2446 802.4889 875 801.98L875 801.98L869.72 801.52997C 869.2439 801.5826 868.7766 801.6969 868.32996 801.87L868.32996 801.87L868.32996 802.58z" stroke="none" fill="#000000" fill-rule="nonzero" fill-opacity="0.09803922" />
    <path d="M890.21 799.68L890.35004 799.6C 891.2482 799.0983 891.8034 798.14874 891.80005 797.12L891.80005 797.12L892.02 770.26C 892.02 770.26 894.94 768.19 894.24 777.63C 893.54 787.07 893.07 801.18 893.07 801.18C 893.07 801.18 892.96 816.57 878.27 816.57C 878.27 816.57 863.58 819.36 863.69 810.97003C 863.8 802.5801 869.76 802.23004 869.76 802.23004L869.76 802.23004L875.03 802.69006C 880.2753 803.1894 885.5521 802.14307 890.21 799.68005L890.21 799.68005L890.21 799.68z" stroke="none" fill="#B07473" fill-rule="nonzero" />
    <path d="M797.83 799.08C 798.18 805.14 816.01 801.64 816.01 801.64L816.01 801.64L828.01 778.33C 828.01 778.33 838.01 770.63 833.01 763.87C 832.7381 763.5035 832.49084 763.11926 832.27 762.72L832.27 762.72L832.27 762.66C 832.16003 762.48 832.07 762.3 831.97003 762.11C 828.37006 754.97 830.14 743.26 830.14 743.26C 830.14 743.26 834.8 709.26 836.44 700.26C 837.59 693.91003 837.12 673.12 836.73 661.48C 836.57996 656.64996 836.44 653.38995 836.44 653.38995L836.44 653.38995L806.82 645.47L806.82 654.3C 806.76 661.6 806.54 671.82 805.82 678.45996C 804.54 689.76996 809.09 727.18994 809.09 727.18994L809.09 727.18994L810.66003 761.24994C 810.8837 767.0154 809.5246 772.73206 806.73004 777.77997C 803.0101 784.57996 798.17004 794.14996 797.83 798.38995C 797.8102 798.61957 797.8102 798.8504 797.83 799.07996L797.83 799.07996L797.83 799.08z" stroke="none" fill="#CC818C" fill-rule="nonzero" />
    <path d="M797.83 799.08C 798.18 805.14 816.01 801.64 816.01 801.64L816.01 801.64L828.01 778.33C 828.01 778.33 838.01 770.63 833.01 763.87C 832.7381 763.5035 832.49084 763.11926 832.27 762.72C 832.11005 766.25 828.27 775.06 828.27 775.06C 828.27 775.06 818.36005 794.89 815.27 799.43C 812.18 803.97 798.42004 798.58997 797.91003 798.43C 797.8656 798.6441 797.83887 798.8615 797.83 799.08z" stroke="none" fill="#000000" fill-rule="nonzero" fill-opacity="0.09803922" />
    <path d="M831.95 762.09C 831.95 762.09 837.81 760.73004 836.07 776C 836.1994 779.5337 834.4246 782.8656 831.42 784.73C 827.23 787.37 820.75 793.04 817.48 804.07C 817.4851 808.974 814.11346 813.23615 809.33997 814.36C 804.05 815.58997 797.44995 816.68 793.62994 815.61C 786.51996 813.61 789.62994 808.74 789.62994 808.74L789.62994 808.74L797.7899 799.06C 797.7899 799.06 812.0099 804.66 815.1599 800.11C 818.30994 795.56 828.1599 775.74 828.1599 775.74C 828.1599 775.74 833.7299 763.37 831.9499 762.08997L831.9499 762.08997L831.95 762.09z" stroke="none" fill="#B07473" fill-rule="nonzero" />
    <path d="M879.67 639.48L879.04 662.48C 887.04 661.70996 892.68 660.63 893.66 659.12C 895.75 655.87 903.38995 654.49 909.88995 653.93C 909.68994 649.63 909.50995 646.76 909.50995 646.76L909.50995 646.76L879.67 639.48zM806.79 657.06C 807.55707 655.50916 808.67706 654.1597 810.06 653.12C 813.21 651.37 812.87 664.31 812.87 664.31C 812.87 664.31 823.32 664.41 836.71 664.24C 836.56 659.39996 836.42004 656.14996 836.42004 656.14996L836.42004 656.14996L806.80005 648.23C 806.80005 648.23 806.84 651.92 806.79004 657.06z" stroke="none" fill="#000000" fill-rule="nonzero" fill-opacity="0.09803922" />
    <path d="M803.42 660.14C 803.42 660.14 806.92 650.67004 810.06 648.93C 813.2 647.18994 812.87 660.12 812.87 660.12C 812.87 660.12 889.81 660.82 893.66 654.87C 897.50995 648.92 919.88995 649.27997 919.88995 649.27997C 919.88995 649.27997 919.18994 575.12994 917.43994 547.14996C 915.68994 519.17 912.88995 493.63995 905.89996 485.94995C 901.36993 480.94995 894.89996 464.85995 890.95996 454.11996C 888.79 448.24997 887.36 443.97995 887.36 443.97995L887.36 443.97995L813.92 448.17996L813.32 454.11996L805.52 532.12C 805.52 532.12 804.52 618.12 801.32 637.74C 798.12 657.36 803.42 660.14 803.42 660.14z" stroke="none" fill="#444053" fill-rule="nonzero" />
	<g>
        <path d="M887.73 654.92C 891.57 648.98 913.95996 649.32996 913.95996 649.32996C 913.95996 649.32996 913.25995 575.17993 911.50995 547.19995C 909.75995 519.22 906.95996 493.68994 899.97 485.99994C 895.43994 480.99994 888.97 464.90994 885.02997 454.16995C 883.20996 449.23996 881.91 445.43994 881.54 444.34995L881.54 444.34995L887.24 444.02994C 887.24 444.02994 888.67 448.29993 890.83997 454.16995C 894.83997 464.90994 901.24994 481.01996 905.77997 485.99994C 912.77997 493.68994 915.56995 519.22 917.31995 547.19995C 919.06995 575.17993 919.7299 649.27997 919.7299 649.27997C 919.7299 649.27997 897.3499 648.92 893.50995 654.92C 890.22 660 833.6 660.23 817.16 660.19C 838.24 660.09 884.73 659.46 887.73 654.92zM804.1 648.92C 805.51996 648.13 806.23 650.32 806.57996 652.92C 805.3115 655.22687 804.2055 657.6193 803.26996 660.07996C 803.26996 660.07996 801.26996 658.9899 800.47 653.45996C 801.57996 651.49 802.87 649.61 804.1 648.92z" stroke="none" fill="#000000" fill-rule="nonzero" fill-opacity="0.09803922" />
	</g>
    <path d="M826.11 264.58C 821.02997 271.52 826.17 281.37 820.72 288.11C 818.92 290.34 816.14996 291.93 814.26996 294.11C 810.79 298.16998 810.92993 303.66998 812.63995 308.43997C 814.35 313.20996 817.43994 317.53998 819.55994 322.17996C 820.4799 324.17996 821.2199 326.44995 820.26996 328.44995C 819.61 329.83997 818.26996 330.88995 817.14996 332.09995C 813.64996 336.00995 813.55 341.44995 815.43 346.04996C 817.31 350.64996 820.92 354.63995 824.43 358.51996C 825.83 360.05997 827.6 361.74997 829.93 361.70996C 831.15753 361.61026 832.3437 361.21948 833.39 360.56995C 841.6848 356.20276 847.97754 348.80698 850.96 339.91995C 853.48114 331.55933 852.9495 322.5749 849.46 314.56995C 846.46 307.49994 841.58 300.71994 841.54004 293.23996C 841.54004 287.30997 844.59 281.64996 845.13007 275.73996C 845.79004 268.56995 841.54004 257.16995 832.88007 254.03996C 833.4501 258.66995 828.73004 261.05997 826.11005 264.57996L826.11005 264.57996L826.11 264.58z" stroke="none" fill="#585268" fill-rule="nonzero" />
    <path d="M826.11 264.58C 821.02997 271.52 826.17 281.37 820.72 288.11C 818.92 290.34 816.14996 291.93 814.26996 294.11C 810.79 298.16998 810.92993 303.66998 812.63995 308.43997C 814.35 313.20996 817.43994 317.53998 819.55994 322.17996C 820.4799 324.17996 821.2199 326.44995 820.26996 328.44995C 819.61 329.83997 818.26996 330.88995 817.14996 332.09995C 813.64996 336.00995 813.55 341.44995 815.43 346.04996C 817.31 350.64996 820.92 354.63995 824.43 358.51996C 825.83 360.05997 827.6 361.74997 829.93 361.70996C 831.15753 361.61026 832.3437 361.21948 833.39 360.56995C 841.6848 356.20276 847.97754 348.80698 850.96 339.91995C 853.48114 331.55933 852.9495 322.5749 849.46 314.56995C 846.46 307.49994 841.58 300.71994 841.54004 293.23996C 841.54004 287.30997 844.59 281.64996 845.13007 275.73996C 845.79004 268.56995 841.54004 257.16995 832.88007 254.03996C 833.4501 258.66995 828.73004 261.05997 826.11005 264.57996L826.11005 264.57996L826.11 264.58zM882.5 516.7C 872.32 517.24 862.74 521.61 853.83 526.56C 844.92004 531.51 836.3 537.16 826.71 540.64M876.17 540.68C 866.09863 541.64624 856.7124 546.208 849.73 553.52997C 847.26 556.14996 845.13 559.08997 842.55 561.6C 838.5949 565.44305 833.71375 568.19885 828.38 569.6C 870.1413 561.17285 862.793 565.60254 857.01 571.73C 855.45 573.41 854.01 575.22 852.47003 576.88995C 844.04004 585.88995 832.14 590.7399 820.65 595.27997" stroke="none" fill="#000000" fill-rule="nonzero" fill-opacity="0.09803922" />
    <path d="M877.39 305.83C 877.6178 313.96387 878.319 322.07764 879.49 330.12997C 880.43 335.86996 881.77 340.97998 883.69 343.24997C 889.28 349.89996 856.41 358.81998 856.41 358.81998L856.41 358.81998L837 343.81998C 837 343.81998 852.39 329.64996 845.22 315.81998C 838.0499 301.99 877.38995 305.83 877.38995 305.83L877.38995 305.83L877.39 305.83z" stroke="none" fill="#CC818C" fill-rule="nonzero" />
    <path d="M813.32 454.12L890.96 454.12C 888.79004 448.25 887.36005 443.97998 887.36005 443.97998L887.36005 443.97998L813.92004 448.18L813.32 454.12z" stroke="none" fill="#000000" fill-rule="nonzero" fill-opacity="0.09803922" />
    <path d="M808.32 452.72L891.32 452.72C 888.99 444.38 891.32 436.65 894.65 430.72C 896.97705 426.55368 899.90515 422.75287 903.34 419.44L903.34 419.44L903.91003 418.93L932.91003 412.5L934.47003 412.16C 934.47003 412.16 934.7 359.47 916.05005 352.24C 897.4001 345.00998 886.2001 335.24 886.2001 335.24L886.2001 335.24L860.56006 343.16L841.67004 333.61002C 835.61005 340.14 819.52 337.61002 819.52 337.61002C 793.17004 340.61002 793.17004 360.46002 793.17004 360.46002C 793.17004 360.46002 808.56006 396.37003 809.73004 396.37003C 810.9 396.37003 808.32007 452.72003 808.32007 452.72003L808.32007 452.72003L808.32 452.72z" stroke="none" fill="#67647E" fill-rule="nonzero" />
    <path d="M836.98 419.22C 836.98 419.22 820.05 415.47 814.29 408.91L814.29 408.91L836.98 419.22zM922.33 399.56L902.73004 415.65C 902.8724 416.92166 903.0894 418.1838 903.38007 419.43L903.38007 419.43L903.9501 418.91998L932.9501 412.49zM869.17 447.13C 869.17 447.13 873.47 449.55002 880.05 452.72L880.05 452.72L891.33 452.72C 889 444.38 891.33 436.65 894.66003 430.72L894.66003 430.72L874.73004 424.27C 881.53 430.56998 869.17004 447.13 869.17004 447.13z" stroke="none" fill="#000000" fill-rule="nonzero" fill-opacity="0.09803922" />
    <path d="M804.82 354.1L793.16003 360.39L781.73004 389.30002C 781.73004 389.30002 769.84 421.01 771.00006 429.41003C 771.00006 429.41003 766.81006 449.22003 774.2701 452.72003L774.2701 452.72003L793.7301 461.52002C 794.433 461.83896 795.2609 461.67432 795.78827 461.11075C 796.3156 460.5472 796.425 459.71017 796.0601 459.03003C 793.2901 453.78003 790.2501 445.58002 795.0601 441.03003L795.0601 441.03003L789.46014 429.38004L809.73016 396.30005L816.48016 384.92004L804.82 354.1z" stroke="none" fill="#67647E" fill-rule="nonzero" />
    <path d="M830.73 412.6C 831.73 416.72 835.14996 423.05002 846.43 425.44L846.43 425.44L858.85 435.58002L872.01996 441.58002L877.37994 444.01L879.66 427.57L874.49 424.74002L868.49 421.45C 868.49 421.45 854.89996 396.81 833.37 407.22C 831.3327 408.1677 830.233 410.40872 830.73 412.6z" stroke="none" fill="#000000" fill-rule="nonzero" fill-opacity="0.09803922" />
    <path d="M831.44 411.2C 832.44 415.32 835.86 421.65002 847.14 424.04L847.14 424.04L859.56 434.19L872.73 440.19L878.08997 442.62L880.37 426.18L875.2 423.36L869.2 420.06C 869.2 420.06 855.61 395.43 834.08 405.83C 832.0471 406.7768 830.94824 409.01193 831.44 411.19998L831.44 411.19998L831.44 411.2z" stroke="none" fill="#CC818C" fill-rule="nonzero" />
    <path d="M885.78 297.09C 885.78 305.39636 882.84326 312.4863 876.9698 318.35977C 871.0963 324.23325 864.0064 327.16998 855.7 327.16998C 847.3937 327.16998 840.3038 324.23325 834.43024 318.35977C 828.55676 312.4863 825.62 305.39636 825.62 297.09C 825.62 288.78363 828.55676 281.69373 834.43024 275.82022C 840.3038 269.94678 847.3937 267.01 855.7 267.01C 864.0064 267.01 871.0963 269.94678 876.9698 275.82022C 882.84326 281.69373 885.78 288.78363 885.78 297.09C 885.78 297.44003 885.7739 297.78998 885.7617 298.13977" stroke="none" fill="#000000" fill-rule="nonzero" fill-opacity="0.09803922" />
    <path d="M885.78 296.39C 885.78 304.69638 882.84326 311.78632 876.9698 317.6598C 871.0963 323.53326 864.0064 326.47 855.7 326.47C 847.3937 326.47 840.3038 323.53326 834.43024 317.6598C 828.55676 311.78632 825.62 304.69638 825.62 296.39C 825.62 288.08368 828.55676 280.99374 834.43024 275.12024C 840.3038 269.24677 847.3937 266.31003 855.7 266.31003C 864.0064 266.31003 871.0963 269.24677 876.9698 275.12024C 882.84326 280.99374 885.78 288.08368 885.78 296.39C 885.78 296.74005 885.7739 297.09 885.7617 297.4398" stroke="none" fill="#CC818C" fill-rule="nonzero" />
    <path d="M874.33 360.65L865.33 343.07C 865.33 343.07 878.57 337.73 879.53 331.53C 880.49005 325.33 892.21 338.79 889.67004 343.25C 887.13007 347.71 874.33 360.65 874.33 360.65z" stroke="none" fill="#000000" fill-rule="nonzero" fill-opacity="0.09803922" />
    <path d="M874.33 359.25L865.33 341.67C 865.33 341.67 878.57 336.33002 879.53 330.13C 880.49005 323.93 892.21 337.4 889.67004 341.85C 887.13007 346.30002 874.33 359.25 874.33 359.25z" stroke="none" fill="#67647E" fill-rule="nonzero" />
    <path d="M800.32 404.65L850.32 471.84C 850.32 471.84 831.9 481.84 806.48 463.91L806.48 463.91L795.48 450.86002L764.23 398.16L800.32 404.65z" stroke="none" fill="#F6F8FB" fill-rule="nonzero" />
    <path d="M790.48 441.18L795.02997 441.06C 795.02997 441.06 822.82996 414.06 829.64996 427.72C 836.47 441.38 812.33997 454.12 812.33997 454.12L812.33997 454.12L804.99994 458.12L795.37994 460.91998L789.25995 452.69998L790.48 441.18z" stroke="none" fill="#CC818C" fill-rule="nonzero" />
    <path d="M797.19 455.76C 797.61 457.31 798.01 459.02002 797.31 460.46002C 797.14844 460.84872 796.8544 461.1676 796.48 461.36002C 796.16406 461.49146 795.81976 461.53964 795.48 461.50003C 793.0717 461.2942 790.83105 460.1828 789.20996 458.39005C 787.6099 456.61017 786.2423 454.63437 785.13995 452.51004C 783.89996 450.36005 782.6099 447.96005 783.05994 445.51004C 783.5499 442.83005 785.93994 440.97003 788.2199 439.51004C 792.8299 436.46005 792.9399 440.01004 793.9899 443.93005L793.9899 443.93005L797.19 455.76z" stroke="none" fill="#000000" fill-rule="nonzero" fill-opacity="0.09803922" />
    <path d="M796.49 455.76C 796.91 457.31 797.31 459.02002 796.61 460.46002C 796.44836 460.84872 796.1543 461.1676 795.77997 461.36002C 795.46405 461.49146 795.11975 461.53964 794.77997 461.50003C 792.3717 461.2942 790.13104 460.1828 788.50995 458.39005C 786.91 456.61017 785.54236 454.63437 784.43994 452.51004C 783.19995 450.36005 781.9099 447.96005 782.3599 445.51004C 782.8499 442.83005 785.2399 440.97003 787.5199 439.51004C 792.1299 436.46005 792.23987 440.01004 793.2899 443.93005L793.2899 443.93005L796.49 455.76z" stroke="none" fill="#67647E" fill-rule="nonzero" />
    <path d="M809.72 396.3L812.05 392.37L810.01 399.66998L809.72003 396.3L809.72 396.3zM872.73 440.15L878.08997 442.58L880.37 426.13998L875.2 423.31998C 878.73004 427.37997 875.64 434.91998 872.73004 440.14996zM894.24 421.07C 894.24 421.07 876.93 422.12 869.58997 417.4" stroke="none" fill="#000000" fill-rule="nonzero" fill-opacity="0.09803922" />
	<g>
        <path d="M892.09 432.11C 894.4231 427.9449 897.35425 424.14447 900.79004 420.83C 901.6142 420.31183 902.4691 419.84433 903.35004 419.43L903.35004 419.43L930.35004 413.88998L931.91003 413.55C 931.91003 413.55 932.15 360.86 913.49005 353.63C 903.03314 349.6419 893.2288 344.11792 884.4 337.24L884.4 337.24L886.45 336.61C 886.45 336.61 897.64 346.4 916.29004 353.61C 934.94006 360.81998 934.73004 413.55 934.73004 413.55L934.73004 413.55L931.93005 413.55L904.29004 418.84L902.73004 420.33C 899.26447 423.79575 896.29315 427.72272 893.9 432C 890.2518 438.78287 889.4219 446.72974 891.59 454.12L891.59 454.12L888.73004 454.12C 886.43005 445.78 888.80005 438.05 892.09 432.11zM818.4 339.12C 818.85004 339.06 819.28 338.99 819.74005 338.94C 821.63275 339.20737 823.53925 339.3643 825.4501 339.41C 823.0962 339.47473 820.74066 339.37784 818.4001 339.12zM857.98 344.53L840.89996 335.92C 841.2544 335.6407 841.58856 335.3366 841.89996 335.01L841.89996 335.01L859.72 344.01z" stroke="none" fill="#000000" fill-rule="nonzero" fill-opacity="0.09803922" />
	</g>
    <path d="M923.03 398.16L934.46 412.16L936.79004 450.16C 936.79004 450.16 939.79004 469.51 917.67004 464.85C 895.55005 460.19 869.87006 445.73 869.87006 445.73C 869.87006 445.73 882.23004 429.17 875.47003 422.88L875.47003 422.88L907.18005 433.14C 907.18005 433.14 912.54004 431.97 908.34 427.31003C 904.14 422.65005 903.4 414.25003 903.4 414.25003L903.4 414.25003L923.03 398.16z" stroke="none" fill="#67647E" fill-rule="nonzero" />
    <path d="M928.16 438.27L934.45996 445.49C 931.15625 444.47955 928.7135 441.68008 928.16 438.27zM917.44 437.1L927.23 449.69L922.33997 450.86002L917.43994 437.1zM819.79 282.58C 818.70996 279.94998 819.52997 276.90997 820.79 274.37997C 822.05 271.84998 823.86 269.55 824.79 266.86996C 826.24 262.86996 825.79 258.38995 827.37 254.44997C 830.14 247.54997 838.01 244.44997 845.07 242.11996C 847.15 241.42996 849.37 240.72997 851.51 241.23996C 854.33 241.91995 856.22003 244.50996 858.51 246.23996C 868.09 253.37996 883.66003 245.51996 892.92 253.07996C 896.47 255.96996 898.19 260.60995 898.72 265.14996C 899.24994 269.68997 898.72 274.29996 898.67 278.87997C 898.51996 286.87997 900.01 295.65997 906.01996 300.96997C 907.82996 302.56998 909.95996 303.77997 911.72 305.42996C 913.48 307.07996 914.87 309.42996 914.56 311.79996C 914.3112 312.90103 913.97687 313.98096 913.56 315.02997C 912.36 319.20996 914.14 323.63995 916.31 327.40997C 922.79 338.61 934.2 347.83997 947.15 348.09998C 946.28 354.62997 939.5 358.41998 933.48004 361.09998C 925.81006 364.50998 917.75006 367.86 909.37006 367.42996C 900.99005 366.99994 892.25006 361.63995 890.7601 353.42996C 890.25006 350.59998 890.32007 347.12997 887.86005 345.63995C 886.38007 344.73996 884.46 344.96994 882.86005 344.28995C 880.55005 343.28995 879.4 340.74994 878.6401 338.34995C 877.0787 333.4168 876.24 328.2835 876.1501 323.10995C 876.0501 316.97995 876.87006 310.28995 873.3901 305.23996C 870.1701 300.56995 864.4501 298.23996 860.74005 293.89996C 857.32007 289.89996 853.59 285.11996 847.98004 284.35995C 840.44006 283.26996 824.38007 293.81995 819.79004 282.57996z" stroke="none" fill="#000000" fill-rule="nonzero" fill-opacity="0.09803922" />
    <path d="M819.79 281.18C 818.70996 278.55 819.52997 275.50998 820.79 272.97998C 822.05 270.44998 823.86 268.15 824.79 265.46997C 826.24 261.46997 825.79 256.98996 827.37 253.04997C 830.14 246.14998 838.01 243.04997 845.07 240.71997C 847.15 240.02997 849.37 239.32997 851.51 239.83997C 854.33 240.51996 856.22003 243.10997 858.51 244.83997C 868.09 251.98996 883.66003 244.11996 892.92 251.67996C 896.47 254.57996 898.19 259.20996 898.72 263.74997C 899.24994 268.28998 898.72 272.89996 898.67 277.47998C 898.51996 285.47998 900.01 294.25998 906.01996 299.56998C 907.82996 301.16998 909.95996 302.37997 911.72 304.02997C 913.48 305.67996 914.87 308.02997 914.56 310.39996C 914.3098 311.50388 913.97546 312.58707 913.56 313.63995C 912.36 317.80997 914.14 322.24994 916.31 326.00995C 922.79 337.20996 934.2 346.43994 947.15 346.69995C 946.28 353.22995 939.5 357.01996 933.48004 359.69995C 925.81006 363.11996 917.75006 366.45996 909.37006 366.02994C 900.99005 365.5999 892.25006 360.23993 890.7601 351.97995C 890.25006 349.14996 890.32007 345.67996 887.86005 344.18994C 886.38007 343.28995 884.46 343.51993 882.86005 342.83994C 880.55005 341.83994 879.4 339.29993 878.6401 336.89993C 877.0787 331.9668 876.24 326.8335 876.1501 321.65994C 876.0501 315.52994 876.87006 308.83994 873.3901 303.78995C 870.1701 299.11993 864.4501 296.78995 860.74005 292.44995C 857.32007 288.44995 853.59 283.66995 847.98004 282.90994C 840.44006 281.91995 824.38007 292.41995 819.79004 281.17993L819.79004 281.17993L819.79 281.18z" stroke="none" fill="#585268" fill-rule="nonzero" />
    <path d="M841.11 358.47L858.35 344.47C 858.35 344.47 846.55 338.07 845.13995 332.61002C 843.7299 327.15002 834.29 335.2 835.24994 340.1C 836.2099 345 841.1099 358.47 841.1099 358.47L841.1099 358.47L841.11 358.47z" stroke="none" fill="#000000" fill-rule="nonzero" fill-opacity="0.09803922" />
    <path d="M841.81 356.37L859.05 342.37C 859.05 342.37 847.25 335.97 845.83997 330.51C 844.42993 325.05002 834.99 333.1 835.94995 338C 836.9099 342.9 841.80994 356.37 841.80994 356.37L841.80994 356.37L841.81 356.37z" stroke="none" fill="#67647E" fill-rule="nonzero" />
    <path d="M861.08997 354.09C 861.08997 354.46832 860.95624 354.79126 860.6887 355.05875C 860.4212 355.32623 860.09827 355.46 859.72 355.46C 859.3417 355.46 859.0188 355.32623 858.7512 355.05875C 858.48376 354.79126 858.35 354.46832 858.35 354.09C 858.35 353.71167 858.48376 353.38876 858.7512 353.12125C 859.0188 352.85376 859.3417 352.72 859.72 352.72C 860.09827 352.72 860.4212 352.85376 860.6887 353.12125C 860.95624 353.38876 861.08997 353.71167 861.08997 354.09C 861.08997 354.10596 861.0897 354.1219 861.0891 354.13782" stroke="none" fill="#000000" fill-rule="nonzero" fill-opacity="0.09803922" />
    <path d="M861.08997 361.71C 861.08997 362.08832 860.95624 362.41122 860.6887 362.67874C 860.4212 362.94623 860.09827 363.08 859.72 363.08C 859.3417 363.08 859.0188 362.94623 858.7512 362.67874C 858.48376 362.41122 858.35 362.08832 858.35 361.71C 858.35 361.3317 858.48376 361.0088 858.7512 360.74124C 859.0188 360.47375 859.3417 360.34 859.72 360.34C 860.09827 360.34 860.4212 360.47375 860.6887 360.74124C 860.95624 361.0088 861.08997 361.3317 861.08997 361.71C 861.08997 361.72595 861.0897 361.74188 861.0891 361.7578" stroke="none" fill="#000000" fill-rule="nonzero" fill-opacity="0.09803922" />
    <path d="M861.08997 369.32C 861.08997 369.69833 860.95624 370.02124 860.6887 370.28876C 860.4212 370.55627 860.09827 370.69 859.72 370.69C 859.3417 370.69 859.0188 370.55627 858.7512 370.28876C 858.48376 370.02124 858.35 369.69833 858.35 369.32C 858.35 368.9417 858.48376 368.61877 858.7512 368.35126C 859.0188 368.08377 859.3417 367.95 859.72 367.95C 860.09827 367.95 860.4212 368.08377 860.6887 368.35126C 860.95624 368.61877 861.08997 368.9417 861.08997 369.32C 861.08997 369.33597 861.0897 369.3519 861.0891 369.36783" stroke="none" fill="#000000" fill-rule="nonzero" fill-opacity="0.09803922" />
	<g>
        <path d="M826.73 261.75C 828.08997 258 827.8 253.8 829.07 250.03C 828.4875 250.86601 828.0011 251.76503 827.62 252.70999C 826.04 256.65 826.48 261.15 825.04 265.13998C 825.04 265.21 824.97 265.28998 824.94 265.37C 825.6457 264.22037 826.2448 263.0087 826.73 261.75zM935.52 355.98C 927.85004 359.40002 919.79004 362.74002 911.4 362.31C 903.01 361.87997 894.29004 356.52 892.80005 348.26C 892.29004 345.43002 892.36005 341.96002 889.9 340.47C 888.42004 339.57 886.5 339.8 884.9 339.12C 882.58 338.12 881.44 335.58 880.68005 333.18C 879.11676 328.24045 878.278 323.10028 878.19006 317.91998C 878.0901 311.78998 878.9001 305.09998 875.43005 300.05C 872.2101 295.37997 866.49005 293.05 862.78 288.71C 859.35004 284.71 855.63 279.93 850.01 279.16998C 842.31 278.16998 826.24 288.66998 821.66003 277.43C 820.92584 275.3054 821.02954 272.98077 821.95 270.93C 821.62 271.49 821.3 272.05 821.01 272.62C 819.71 275.15 818.89 278.19 820.01 280.82C 824.60004 292.06 840.66003 281.51 848.37 282.56C 853.98 283.32 857.71 288.13 861.14 292.1C 864.85004 296.4 870.56 298.77002 873.78 303.45C 877.26 308.45 876.45 315.19 876.55005 321.31C 876.6324 326.48676 877.4678 331.62393 879.03 336.56C 879.79004 338.95 880.94 341.56 883.25 342.5C 884.85 343.17 886.77 342.95 888.25 343.85C 890.7 345.33002 890.64 348.85 891.14 351.63C 892.63 359.89 901.37 365.26 909.75 365.69C 918.13 366.12 926.2 362.77 933.86 359.35C 939.38 356.9 945.52997 353.49002 947.18 347.91C 944.5 351.58002 939.82 354.07 935.52 355.98z" stroke="none" fill="#000000" fill-rule="nonzero" fill-opacity="0.09803922" />
	</g>
</g>
</svg>